<svg width="33" height="31" viewBox="0 0 33 31" fill="none" xmlns="http://www.w3.org/2000/svg">
<g clip-path="url(#clip0_941_64)">
<path d="M2.00594 21.6117C3.11379 21.6117 4.01188 20.7396 4.01188 19.6638C4.01188 18.5879 3.11379 17.7158 2.00594 17.7158C0.89809 17.7158 0 18.5879 0 19.6638C0 20.7396 0.89809 21.6117 2.00594 21.6117Z" fill="white"/>
<path d="M5.55379 27.5456C6.66164 27.5456 7.55973 26.6735 7.55973 25.5977C7.55973 24.5219 6.66164 23.6498 5.55379 23.6498C4.44594 23.6498 3.54785 24.5219 3.54785 25.5977C3.54785 26.6735 4.44594 27.5456 5.55379 27.5456Z" fill="white"/>
<path d="M1.91895 12.1666C1.91895 12.1666 7.99248 12.2628 11.4967 17.4814C15.3951 23.0466 12.1653 28.9265 12.1653 28.9265" stroke="white" stroke-width="4" stroke-miterlimit="10" stroke-linecap="round"/>
<path d="M30.7139 21.6117C31.8218 21.6117 32.7199 20.7396 32.7199 19.6638C32.7199 18.5879 31.8218 17.7158 30.7139 17.7158C29.6061 17.7158 28.708 18.5879 28.708 19.6638C28.708 20.7396 29.6061 21.6117 30.7139 21.6117Z" fill="white"/>
<path d="M27.1671 27.5456C28.2749 27.5456 29.173 26.6735 29.173 25.5977C29.173 24.5219 28.2749 23.6498 27.1671 23.6498C26.0592 23.6498 25.1611 24.5219 25.1611 25.5977C25.1611 26.6735 26.0592 27.5456 27.1671 27.5456Z" fill="white"/>
<path d="M30.8013 12.1666C30.8013 12.1666 24.7278 12.2628 21.2236 17.4814C17.3252 23.0466 20.5549 28.9265 20.5549 28.9265" stroke="white" stroke-width="4" stroke-miterlimit="10" stroke-linecap="round"/>
<path d="M19.797 4.02014C20.9048 4.02014 21.8029 3.14802 21.8029 2.0722C21.8029 0.996388 20.9048 0.124268 19.797 0.124268C18.6891 0.124268 17.791 0.996388 17.791 2.0722C17.791 3.14802 18.6891 4.02014 19.797 4.02014Z" fill="white"/>
<path d="M12.7335 3.89587C13.8413 3.89587 14.7394 3.02375 14.7394 1.94793C14.7394 0.87212 13.8413 0 12.7335 0C11.6256 0 10.7275 0.87212 10.7275 1.94793C10.7275 3.02375 11.6256 3.89587 12.7335 3.89587Z" fill="white"/>
<path d="M26.4486 5.87988C26.4486 5.87988 23.221 10.876 16.809 11.0884C9.88724 11.4471 6.37891 5.72156 6.37891 5.72156" stroke="white" stroke-width="4" stroke-miterlimit="10" stroke-linecap="round"/>
</g>
<defs>
<clipPath id="clip0_941_64">
<rect width="33" height="31" fill="white"/>
</clipPath>
</defs>
</svg>
